#!OML:ASF H:\Punching\Project 1\Capture day 1\Session 1\female.ASF
:FULLY-SPECIFIED
:DEGREES
1156
root -2.27149 12.2351 4.30744 18.3939 20.2562 -0.49522
lowerback 15.8292 0.578155 2.64898
upperback -0.738967 1.55257 2.77614
thorax -9.73086 0.692925 1.13209
lowerneck -8.27506 3.53343 12.8237
upperneck 17.1521 3.68012 -4.45974
head 6.94811 2.23224 -3.24016
rclavicle 9.93923e-015 -1.27222e-014
rhumerus 21.9333 14.0922 -75.2974
rradius 138.467
rwrist -47.5019
rhand -16.0708 -7.47013
rfingers 7.12502
rthumb 10.1318 -37.2062
lclavicle 9.93923e-015 -1.27222e-014
lhumerus 16.7409 -22.3629 71.5081
lradius 122.753
lwrist 23.5251
lhand -16.2417 30.164
lfingers 7.12502
lthumb 9.96701 59.9081
rfemur -77.1861 -10.4596 16.3239
rtibia 87.2386
rfoot -23.8172 -7.5197
rtoes -8.90983
lfemur -49.2195 -1.475 11.5773
ltibia 86.2422
lfoot -27.742 -15.0325
ltoes -43.426
1157
root -2.24709 12.1844 4.27138 18.2313 17.658 -1.41496
lowerback 15.8475 0.268319 1.7777
upperback -0.581842 0.953471 2.61261
thorax -9.57508 0.446361 1.59036
lowerneck -7.84328 4.66188 14.163
upperneck 17.3461 5.15676 -4.93474
head 7.12878 2.99155 -3.47965
rclavicle 3.29983e-014 -2.54444e-014
rhumerus 21.7588 15.125 -75.7157
rradius 138.287
rwrist -47.0479
rhand -15.8121 -7.2968
rfingers 7.12502
rthumb 10.3814 -37.0205
lclavicle 3.29983e-014 -2.54444e-014
lhumerus 19.2267 -19.7477 69.6054
lradius 119.063
lwrist 22.1284
lhand -16.0752 30.9728
lfingers 7.12502
lthumb 10.1276 60.7091
rfemur -78.2445 -8.96666 17.3292
rtibia 86.9678
rfoot -23.2345 -6.39914
rtoes -8.63147
lfemur -48.2719 -0.350946 12.0314
ltibia 87.4215
lfoot -28.0394 -14.3482
ltoes -43.8919
1158
root -2.22073 12.1358 4.2386 18.0699 15.1003 -2.29953
lowerback 15.8408 -0.0599457 0.952015
upperback -0.426223 0.337001 2.41582
thorax -9.39152 0.185627 1.99049
lowerneck -7.31261 5.7607 15.5012
upperneck 17.5565 6.62031 -5.39353
head 7.32549 3.74762 -3.70797
rclavicle 4.13472e-014 8.34896e-015
rhumerus 21.4673 16.1812 -76.1458
rradius 138.052
rwrist -46.3278
rhand -15.6112 -7.07641
rfingers 7.12502
rthumb 10.5752 -36.7903
lclavicle 4.13472e-014 8.34896e-015
lhumerus 21.6312 -16.9964 67.7505
lradius 114.546
lwrist 20.1512
lhand -15.8519 31.6713
lfingers 7.12502
lthumb 10.343 61.3969
rfemur -79.1135 -7.47597 18.2853
rtibia 86.6607
rfoot -22.6913 -5.26322
rtoes -8.26933
lfemur -47.2418 0.752606 12.4493
ltibia 88.5529
lfoot -28.2761 -13.6569
ltoes -44.2777
1159
root -2.19417 12.0887 4.20804 17.9376 12.6305 -3.12493
lowerback 15.8008 -0.415837 0.16409
upperback -0.295445 -0.30918 2.18681
thorax -9.2025 -0.0946532 2.33986
lowerneck -6.64299 6.81206 16.8261
upperneck 17.7681 8.05884 -5.83541
head 7.52337 4.49457 -3.92513
rclavicle -9.26834e-015 -7.35503e-015
rhumerus 21.0583 17.2691 -76.5914
rradius 137.766
rwrist -45.3958
rhand -15.5098 -6.83615
rfingers 7.12502
rthumb 10.673 -36.5451
lclavicle -9.26834e-015 -7.35503e-015
lhumerus 23.9386 -14.1571 65.9582
lradius 109.147
lwrist 17.5305
lhand -15.5717 32.2113
lfingers 7.12502
lthumb 10.6133 61.9233
rfemur -79.8443 -6.01686 19.1687
rtibia 86.343
rfoot -22.1837 -4.13492
rtoes -7.81834
lfemur -46.2082 1.83174 12.8194
ltibia 89.6348
lfoot -28.4172 -12.9734
ltoes -44.5573
1160
root -2.16807 12.0439 4.18045 17.8141 10.2736 -3.86597
lowerback 15.7719 -0.799936 -0.604229
upperback -0.190131 -0.988287 1.92661
thorax -9.03472 -0.394451 2.65046
lowerneck -5.88235 7.80988 18.1247
upperneck 17.9926 9.46173 -6.25998
head 7.73125 5.22647 -4.12952
rclavicle -7.95139e-015 -3.04141e-014
rhumerus 20.5793 18.3529 -77.0423
rradius 137.431
rwrist -44.3747
rhand -15.5032 -6.60225
rfingers 7.12502
rthumb 10.6794 -36.3108
lclavicle -7.95139e-015 -3.04141e-014
lhumerus 26.2212 -11.2559 64.2234
lradius 102.789
lwrist 14.28
lhand -15.2404 32.5741
lfingers 7.12502
lthumb 10.9329 62.2695
rfemur -80.4244 -4.60726 19.9448
rtibia 86.0317
rfoot -21.7194 -3.03906
rtoes -7.28517
lfemur -45.1696 2.85104 13.111
ltibia 90.656
lfoot -28.4594 -12.2808
ltoes -44.7356
1161
root -2.14352 12.0011 4.15488 17.695 8.07153 -4.50721
lowerback 15.7675 -1.2149 -1.35382
upperback -0.119505 -1.70415 1.64283
thorax -8.90602 -0.714281 2.93238
lowerneck -5.02436 8.73399 19.3575
upperneck 18.2224 10.8056 -6.644
head 7.93647 5.93165 -4.31118
rclavicle -1.61016e-014 -6.75868e-015
rhumerus 20.0484 19.3999 -77.487
rradius 137.072
rwrist -43.3941
rhand -15.4962 -6.37004
rfingers 7.12502
rthumb 10.6862 -36.0783
lclavicle -1.61016e-014 -6.75868e-015
lhumerus 28.4882 -8.33668 62.5689
lradius 95.482
lwrist 10.4077
lhand -14.7999 32.8107
lfingers 7.12502
lthumb 11.3577 62.4831
rfemur -80.8794 -3.28403 20.6024
rtibia 85.7461
rfoot -21.2994 -1.99652
rtoes -6.69577
lfemur -44.1744 3.78084 13.3172
ltibia 91.618
lfoot -28.3993 -11.5807
ltoes -44.8097
1162
root -2.12118 11.9599 4.13031 17.5663 6.06051 -5.04926
lowerback 15.8254 -1.65174 -2.06845
upperback -0.0787963 -2.44349 1.33948
thorax -8.83438 -1.047 3.17952
lowerneck -4.17683 9.58273 20.5009
upperneck 18.4894 12.0648 -6.95993
head 8.15807 6.59736 -4.45734
rclavicle -7.95139e-016 7.95139e-016
rhumerus 19.5129 20.3537 -77.895
rradius 136.724
rwrist -42.5377
rhand -15.4464 -6.16145
rfingers 7.12502
rthumb 10.7342 -35.8672
lclavicle -7.95139e-016 7.95139e-016
lhumerus 30.7856 -5.44134 61.0131
lradius 87.2938
lwrist 6.01034
lhand -14.2117 32.9229
lfingers 7.12502
lthumb 11.9249 62.5632
rfemur -81.2267 -2.07943 21.1501
rtibia 85.5007
rfoot -20.9272 -1.03106
rtoes -6.10329
lfemur -43.2563 4.59893 13.4505
ltibia 92.526
lfoot -28.2571 -10.8737
ltoes -44.8036
1163
root -2.10052 11.92 4.10649 17.3969 4.24843 -5.50137
lowerback 15.9827 -2.10418 -2.7452
upperback -0.0606988 -3.19866 1.03872
thorax -8.83364 -1.38696 3.41571
lowerneck -3.36081 10.3556 21.4999
upperneck 18.7795 13.2349 -7.19948
head 8.38412 7.21738 -4.55798
rclavicle 6.36111e-015 -3.18055e-015
rhumerus 19.0112 21.2209 -78.2261
rradius 136.416
rwrist -41.8504
rhand -15.3046 -6.04954
rfingers 7.12502
rthumb 10.871 -35.7482
lclavicle 6.36111e-015 -3.18055e-015
lhumerus 33.0242 -2.55324 59.6328
lradius 78.4559
lwrist 1.22877
lhand -13.4135 32.8483
lfingers 7.12502
lthumb 12.6946 62.4425
rfemur -81.4548 -1.01049 21.6027
rtibia 85.3002
rfoot -20.609 -0.145667
rtoes -5.53791
lfemur -42.3992 5.28741 13.5223
ltibia 93.3816
lfoot -28.0622 -10.1691
ltoes -44.7242
1164
root -2.0814 11.8807 4.08212 17.1832 2.66832 -5.88326
lowerback 16.2484 -2.56955 -3.35441
upperback -0.0473651 -3.96224 0.753933
thorax -8.89167 -1.7309 3.63948
lowerneck -2.64202 11.059 22.3586
upperneck 19.0793 14.3076 -7.37985
head 8.61581 7.78457 -4.619
rclavicle 7.95139e-016 -7.95139e-015
rhumerus 18.6 22.0058 -78.455
rradius 136.151
rwrist -41.2998
rhand -15.0667 -5.90903
rfingers 7.12502
rthumb 11.1004 -35.5955
lclavicle 7.95139e-016 -7.95139e-015
lhumerus 35.1495 0.369973 58.493
lradius 69.3586
lwrist -3.71735
lhand -12.3179 32.4464
lfingers 7.12502
lthumb 13.7507 61.972
rfemur -81.5825 -0.108096 21.9943
rtibia 85.1482
rfoot -20.3481 0.641371
rtoes -5.0348
lfemur -41.6387 5.83205 13.5734
ltibia 94.1913
lfoot -27.8356 -9.51238
ltoes -44.5804
1165
root -2.06281 11.842 4.05706 16.92 1.31217 -6.22375
lowerback 16.6104 -3.04331 -3.87233
upperback -0.0197228 -4.72366 0.496585
thorax -8.98422 -2.07479 3.8487
lowerneck -2.00633 11.6953 23.0896
upperneck 19.3264 15.2908 -7.5508
head 8.82965 8.29823 -4.66087
rclavicle 7.15625e-014 -7.95139e-015
rhumerus 18.3188 22.7461 -78.5681
rradius 135.936
rwrist -40.8387
rhand -14.7776 -5.73273
rfingers 7.12502
rthumb 11.3793 -35.404
lclavicle 7.15625e-014 -7.95139e-015
lhumerus 37.0683 3.39991 57.6667
lradius 60.5303
lwrist -8.53118
lhand -10.9549 31.522
lfingers 7.12502
lthumb 15.0639 60.9539
rfemur -81.6151 0.629357 22.3615
rtibia 85.0388
rfoot -20.1513 1.34294
rtoes -4.62369
lfemur -40.9645 6.25054 13.6398
ltibia 94.9568
lfoot -27.6 -8.93538
ltoes -44.4066
1166
root -2.04397 11.8042 4.03177 16.6048 0.161251 -6.54914
lowerback 17.0525 -3.5164 -4.28103
upperback 0.0530719 -5.46584 0.267911
thorax -9.07317 -2.4129 4.03051
lowerneck -1.49105 12.2747 23.7251
upperneck 19.4798 16.1909 -7.75972
head 9.02182 8.75805 -4.70302
rclavicle 5.08889e-014 1.11319e-014
rhumerus 18.2487 23.4457 -78.5643
rradius 135.739
rwrist -40.4275
rhand -14.4997 -5.50239
rfingers 7.12502
rthumb 11.6472 -35.1587
lclavicle 5.08889e-014 1.11319e-014
lhumerus 38.7165 6.58981 57.2237
lradius 52.5806
lwrist -12.9014
lhand -9.51106 30.0473
lfingers 7.12502
lthumb 16.4544 59.3695
rfemur -81.5469 1.21902 22.7334
rtibia 84.9614
rfoot -20.0261 1.94544
rtoes -4.37222
lfemur -40.3505 6.56239 13.7525
ltibia 95.6722
lfoot -27.3855 -8.46339
ltoes -44.2333
